<svg width="102" height="103" viewBox="0 0 102 103" fill="none" xmlns="http://www.w3.org/2000/svg">
<path d="M100.772 41.2578C102.108 48.9756 93.9123 46.9199 93.9123 46.9199C90.4822 37.2546 84.9941 38.1562 84.9941 38.1562C89.2907 41.2938 89.6157 43.9626 89.6157 43.9626C78.17 35.8481 62.6082 42.3758 56.6868 45.4413C53.365 40.7529 46.6493 30.2581 49.0323 25.4976C52.1735 19.2585 58.5643 22.8289 58.5643 22.8289C71.4903 22.6125 70.7682 17.9962 70.7682 17.9962C67.3381 20.665 57.2284 17.9962 57.2284 17.9962C66.0022 17.9962 69.7212 14.4258 69.7212 14.4258C63.1859 16.0487 55.8925 9.08832 55.8925 9.08832C53.2206 -4.5801 40.8723 1.22627 40.8723 1.22627C48.599 -0.108114 46.541 8.07851 46.541 8.07851C36.8645 11.5046 37.7672 16.9864 37.7672 16.9864C40.9084 12.6948 43.5803 12.3702 43.5803 12.3702C34.7342 24.8124 43.2553 42.1233 45.7827 46.6314C41.1611 49.8411 30.3293 56.9097 25.455 54.4574C19.2086 51.3198 22.7831 44.9364 22.7831 44.9364C22.6387 32.0253 18.0171 32.7466 18.0171 32.7466C20.6889 36.1727 18.0171 46.2707 18.0171 46.2707C18.0171 37.5071 14.4426 33.7924 14.4426 33.7924C16.0673 40.3201 9.09885 47.6051 9.09885 47.6051C-4.5854 50.2739 1.22769 62.6079 1.22769 62.6079C-0.108235 54.8901 8.08787 56.9458 8.08787 56.9458C11.518 66.6111 17.0061 65.7095 17.0061 65.7095C12.7095 62.5719 12.3845 59.9031 12.3845 59.9031C24.4801 68.4864 41.1973 60.6965 46.2521 57.9556C49.6461 62.8243 55.9647 72.8502 53.6178 77.5025C50.4765 83.7417 44.0857 80.1713 44.0857 80.1713C31.1597 80.3156 31.8819 84.9318 31.8819 84.9318C35.3119 82.263 45.4217 84.9318 45.4217 84.9318C36.6479 84.9318 32.9289 88.5022 32.9289 88.5022C39.4642 86.8793 46.7576 93.8397 46.7576 93.8397C49.4295 107.508 61.7778 101.702 61.7778 101.702C54.0511 103.036 56.1091 94.8495 56.1091 94.8495C65.7856 91.4234 64.8829 85.9416 64.8829 85.9416C61.7417 90.2333 59.0698 90.5579 59.0698 90.5579C67.7353 78.4041 59.7558 61.562 57.0479 56.6212C61.9583 53.1951 71.8875 47.0641 76.473 49.3723C82.7194 52.5099 79.1449 58.8933 79.1449 58.8933C79.2893 71.8044 83.9109 71.0831 83.9109 71.0831C81.239 67.6569 83.9109 57.5589 83.9109 57.5589C83.9109 66.3226 87.4854 70.0372 87.4854 70.0372C85.8606 63.5095 92.8291 56.2245 92.8291 56.2245C106.586 53.5918 100.772 41.2578 100.772 41.2578Z" fill="url(#paint0_linear_1_6)"/>
<defs>
<linearGradient id="paint0_linear_1_6" x1="50.9966" y1="0.00114441" x2="50.9966" y2="102.927" gradientUnits="userSpaceOnUse">
<stop stop-color="#C0B7E8"/>
<stop offset="1" stop-color="#8176AF"/>
</linearGradient>
</defs>
</svg>
